<svg xmlns="http://www.w3.org/2000/svg" viewBox="0 0 64 64" role="img" aria-label="Codex Snapshots">
  <rect width="64" height="64" rx="14" fill="#231d12"/>
  <circle cx="32" cy="32" r="20" fill="none" stroke="#4f4533" stroke-width="1.6"/>
  <g transform="translate(32,32)">
    <path d="M -12.71 -14.12 A 19 19 0 0 1 12.71 -14.12 L 5.48 -2.44 A 6 6 0 0 0 -1.85 -5.71 Z" fill="#c9bd9f"/>
    <path d="M 5.87 -18.07 A 19 19 0 0 1 18.58 3.95 L 4.85 3.53 A 6 6 0 0 0 4.01 -4.46 Z" fill="#e7dcc4"/>
    <path d="M 18.58 -3.95 A 19 19 0 0 1 5.87 18.07 L -0.63 5.97 A 6 6 0 0 0 5.87 1.25 Z" fill="#c9bd9f"/>
    <path d="M 12.71 14.12 A 19 19 0 0 1 -12.71 14.12 L -5.48 2.44 A 6 6 0 0 0 1.85 5.71 Z" fill="#e7dcc4"/>
    <path d="M -5.87 18.07 A 19 19 0 0 1 -18.58 -3.95 L -4.85 -3.53 A 6 6 0 0 0 -4.01 4.46 Z" fill="#c9bd9f"/>
    <path d="M -18.58 3.95 A 19 19 0 0 1 -5.87 -18.07 L 0.63 -5.97 A 6 6 0 0 0 -5.87 -1.25 Z" fill="#e7dcc4"/>
  </g>
  <circle cx="32" cy="32" r="3.4" fill="#b23a2b"/>
</svg>
